<svg width="20" height="20" viewBox="0 0 20 20" fill="none" xmlns="http://www.w3.org/2000/svg">
<path fill-rule="evenodd" clip-rule="evenodd" d="M3.33329 4.3335C2.96891 4.3335 2.66663 4.63578 2.66663 5.00016V15.0002C2.66663 15.3645 2.96891 15.6668 3.33329 15.6668H16.6666C17.031 15.6668 17.3333 15.3645 17.3333 15.0002V5.00016C17.3333 4.63578 17.031 4.3335 16.6666 4.3335H3.33329ZM0.666626 5.00016C0.666626 3.53121 1.86434 2.3335 3.33329 2.3335H16.6666C18.1356 2.3335 19.3333 3.53121 19.3333 5.00016V15.0002C19.3333 16.4691 18.1356 17.6668 16.6666 17.6668H3.33329C1.86434 17.6668 0.666626 16.4691 0.666626 15.0002V5.00016Z" fill="#17181C"/>
<path fill-rule="evenodd" clip-rule="evenodd" d="M0.84748 4.42662C1.16419 3.97417 1.78772 3.86414 2.24017 4.18085L10 9.61276L17.7599 4.18085C18.2124 3.86414 18.8359 3.97417 19.1526 4.42662C19.4693 4.87907 19.3593 5.5026 18.9068 5.81932L10.5735 11.6527C10.2292 11.8937 9.7709 11.8937 9.42658 11.6527L1.09325 5.81932C0.6408 5.5026 0.530765 4.87907 0.84748 4.42662Z" fill="#17181C"/>
</svg>
