<svg width="18" height="18" viewBox="0 0 18 18" fill="none" xmlns="http://www.w3.org/2000/svg">
<path fill-rule="evenodd" clip-rule="evenodd" d="M9.54789 0.722683C9.60887 0.173775 10.1033 -0.221769 10.6522 -0.16079C12.5687 0.0521221 14.3559 0.910375 15.7203 2.27305C17.0847 3.63573 17.9452 5.42183 18.1605 7.3381C18.2222 7.88693 17.8273 8.38184 17.2784 8.44351C16.7296 8.50518 16.2347 8.11026 16.173 7.56143C16.0084 6.09604 15.3503 4.7302 14.307 3.68815C13.2636 2.64611 11.8969 1.9898 10.4314 1.82698C9.88245 1.766 9.48691 1.27159 9.54789 0.722683ZM4.3762 2.82756C4.25355 2.72207 4.09672 2.66479 3.93495 2.66638L3.92511 2.66648V2.66643H1.42574C1.33329 2.66656 1.24188 2.68591 1.15731 2.72327C1.07265 2.76067 0.996703 2.81528 0.934304 2.88364C0.871906 2.95199 0.824424 3.03259 0.794882 3.1203C0.765999 3.20606 0.754883 3.29678 0.762187 3.38693C1.02027 5.80318 1.84315 8.12488 3.16439 10.1644L3.16915 10.1718L3.16912 10.1718C4.36983 12.0613 5.97186 13.6634 7.86143 14.8641L7.86923 14.869L7.86921 14.8691C9.89908 16.1854 12.209 17.0081 14.6139 17.2711C14.704 17.2783 14.7947 17.267 14.8804 17.2381C14.9683 17.2083 15.0491 17.1605 15.1175 17.0978C15.1859 17.035 15.2404 16.9587 15.2776 16.8736C15.3148 16.7885 15.3338 16.6967 15.3334 16.6038L15.3334 16.5998V14.0998C15.3334 14.0915 15.3335 14.0832 15.3337 14.075C15.3378 13.9115 15.2816 13.7522 15.1759 13.6275C15.071 13.5036 14.9244 13.4223 14.7638 13.3988C13.8909 13.2832 13.0338 13.0695 12.2088 12.7617L12.2066 12.7608C12.0873 12.716 11.9576 12.7063 11.833 12.7328C11.709 12.7593 11.5952 12.8205 11.5048 12.9093L10.4489 13.9652C10.1306 14.2835 9.6388 14.3499 9.24748 14.1274C7.00472 12.8521 5.14775 10.9951 3.87248 8.75239C3.64997 8.36107 3.71635 7.8693 4.03467 7.55099L5.09057 6.49509C5.17937 6.40471 5.24059 6.29087 5.26702 6.16692C5.29361 6.04226 5.2839 5.9126 5.23906 5.79329L5.23821 5.79103C4.93039 4.96612 4.71668 4.1091 4.60112 3.23625C4.57782 3.07742 4.49798 2.93228 4.3762 2.82756ZM3.92076 0.666429C4.56589 0.661408 5.19104 0.890444 5.68028 1.31119C6.17091 1.73313 6.49137 2.31907 6.58193 2.95981L6.58323 2.969L6.58319 2.96901C6.67885 3.69429 6.85625 4.40642 7.11201 5.09182L6.17511 5.44143L7.11116 5.08957C7.29055 5.5668 7.32938 6.08545 7.22303 6.58408C7.11669 7.0827 6.86964 7.54038 6.51116 7.9029L6.50723 7.90688L6.50721 7.90687L6.00477 8.40931C6.93871 9.84 8.15987 11.0612 9.59056 11.9951L10.093 11.4927L10.097 11.4887C10.4595 11.1302 10.9172 10.8832 11.4158 10.7768C11.9139 10.6706 12.4321 10.7092 12.9089 10.8882C13.594 11.1438 14.3059 11.3211 15.0309 11.4167L15.0398 11.4179L15.0398 11.4179C15.6875 11.5093 16.279 11.8355 16.7018 12.3346C17.1217 12.8301 17.3462 13.4617 17.3334 14.1107V16.5978M9.56028 3.97494C9.66604 3.43287 10.1912 3.07918 10.7333 3.18494C11.7426 3.38185 12.6701 3.87547 13.3973 4.6026C14.1244 5.32974 14.618 6.25731 14.8149 7.2666C14.9207 7.80867 14.567 8.33383 14.0249 8.43959C13.4829 8.54535 12.9577 8.19165 12.8519 7.64959C12.7313 7.03099 12.4287 6.46248 11.9831 6.01682C11.5374 5.57115 10.9689 5.26861 10.3503 5.14792C9.80822 5.04216 9.45452 4.517 9.56028 3.97494Z" fill="#17181C"/>
</svg>
