<svg width="259" height="73" viewBox="0 0 259 73" fill="none" xmlns="http://www.w3.org/2000/svg">
<path d="M9.52801 6.22383C10.3067 6.38383 10.8987 6.6985 11.304 7.16783C11.7093 7.6265 11.912 8.22917 11.912 8.97583C11.912 9.9465 11.5653 10.6932 10.872 11.2158C10.1893 11.7385 9.18134 11.9998 7.84801 11.9998H2.88801V0.799831H7.54401C8.73867 0.799831 9.67201 1.04516 10.344 1.53583C11.016 2.0265 11.352 2.73583 11.352 3.66383C11.352 4.29317 11.192 4.8265 10.872 5.26383C10.552 5.6905 10.104 6.0105 9.52801 6.22383ZM4.05601 5.87183H7.48001C8.34401 5.87183 9.00534 5.69583 9.46401 5.34383C9.93334 4.99183 10.168 4.47983 10.168 3.80783C10.168 3.13583 9.93334 2.62383 9.46401 2.27183C9.00534 1.91983 8.34401 1.74383 7.48001 1.74383H4.05601V5.87183ZM7.84801 11.0558C9.77867 11.0558 10.744 10.3358 10.744 8.89583C10.744 7.48783 9.77867 6.78383 7.84801 6.78383H4.05601V11.0558H7.84801Z" fill="#E6E6E6"/>
<path d="M22.3079 12.0798C21.4759 12.0798 20.7292 11.8985 20.0679 11.5358C19.4172 11.1732 18.9052 10.6665 18.5319 10.0158C18.1585 9.3545 17.9719 8.61317 17.9719 7.79183C17.9719 6.9705 18.1585 6.2345 18.5319 5.58383C18.9052 4.93317 19.4172 4.4265 20.0679 4.06383C20.7292 3.70116 21.4759 3.51983 22.3079 3.51983C23.0332 3.51983 23.6785 3.66383 24.2439 3.95183C24.8199 4.22917 25.2732 4.63983 25.6039 5.18383L24.7559 5.75983C24.4785 5.34383 24.1265 5.0345 23.6999 4.83183C23.2732 4.6185 22.8092 4.51183 22.3079 4.51183C21.6999 4.51183 21.1505 4.6505 20.6599 4.92783C20.1799 5.1945 19.8012 5.5785 19.5239 6.07983C19.2572 6.58117 19.1239 7.15183 19.1239 7.79183C19.1239 8.4425 19.2572 9.0185 19.5239 9.51983C19.8012 10.0105 20.1799 10.3945 20.6599 10.6718C21.1505 10.9385 21.6999 11.0718 22.3079 11.0718C22.8092 11.0718 23.2732 10.9705 23.6999 10.7678C24.1265 10.5652 24.4785 10.2558 24.7559 9.83983L25.6039 10.4158C25.2732 10.9598 24.8199 11.3758 24.2439 11.6638C23.6679 11.9412 23.0225 12.0798 22.3079 12.0798Z" fill="#E6E6E6"/>
<path d="M33.1635 7.64783C34.3048 7.9145 34.8755 8.6025 34.8755 9.71183C34.8755 10.4478 34.6035 11.0132 34.0595 11.4078C33.5155 11.8025 32.7048 11.9998 31.6275 11.9998H27.8035V3.58383H31.5155C32.4755 3.58383 33.2275 3.7705 33.7715 4.14383C34.3155 4.51716 34.5875 5.0505 34.5875 5.74383C34.5875 6.2025 34.4595 6.59716 34.2035 6.92783C33.9582 7.24783 33.6115 7.48783 33.1635 7.64783ZM28.9075 7.32783H31.4355C32.0862 7.32783 32.5822 7.20516 32.9235 6.95983C33.2755 6.7145 33.4515 6.35717 33.4515 5.88783C33.4515 5.4185 33.2755 5.0665 32.9235 4.83183C32.5822 4.59717 32.0862 4.47983 31.4355 4.47983H28.9075V7.32783ZM31.5795 11.1038C32.3048 11.1038 32.8488 10.9865 33.2115 10.7518C33.5742 10.5172 33.7555 10.1492 33.7555 9.64783C33.7555 9.1465 33.5902 8.7785 33.2595 8.54383C32.9288 8.2985 32.4062 8.17583 31.6915 8.17583H28.9075V11.1038H31.5795Z" fill="#E6E6E6"/>
<path d="M41.0099 12.0798C40.1992 12.0798 39.4685 11.8985 38.8179 11.5358C38.1672 11.1625 37.6552 10.6505 37.2819 9.99983C36.9085 9.34917 36.7219 8.61317 36.7219 7.79183C36.7219 6.9705 36.9085 6.2345 37.2819 5.58383C37.6552 4.93317 38.1672 4.4265 38.8179 4.06383C39.4685 3.70116 40.1992 3.51983 41.0099 3.51983C41.8205 3.51983 42.5512 3.70116 43.2019 4.06383C43.8525 4.4265 44.3592 4.93317 44.7219 5.58383C45.0952 6.2345 45.2819 6.9705 45.2819 7.79183C45.2819 8.61317 45.0952 9.34917 44.7219 9.99983C44.3592 10.6505 43.8525 11.1625 43.2019 11.5358C42.5512 11.8985 41.8205 12.0798 41.0099 12.0798ZM41.0099 11.0718C41.6072 11.0718 42.1405 10.9385 42.6099 10.6718C43.0899 10.3945 43.4632 10.0052 43.7299 9.50383C43.9965 9.0025 44.1299 8.43183 44.1299 7.79183C44.1299 7.15183 43.9965 6.58117 43.7299 6.07983C43.4632 5.5785 43.0899 5.1945 42.6099 4.92783C42.1405 4.6505 41.6072 4.51183 41.0099 4.51183C40.4125 4.51183 39.8739 4.6505 39.3939 4.92783C38.9245 5.1945 38.5512 5.5785 38.2739 6.07983C38.0072 6.58117 37.8739 7.15183 37.8739 7.79183C37.8739 8.43183 38.0072 9.0025 38.2739 9.50383C38.5512 10.0052 38.9245 10.3945 39.3939 10.6718C39.8739 10.9385 40.4125 11.0718 41.0099 11.0718Z" fill="#E6E6E6"/>
<path d="M55.0698 8.14383H48.0298C48.0938 9.0185 48.4298 9.72783 49.0378 10.2718C49.6458 10.8052 50.4138 11.0718 51.3418 11.0718C51.8644 11.0718 52.3444 10.9812 52.7818 10.7998C53.2191 10.6078 53.5978 10.3305 53.9178 9.96783L54.5578 10.7038C54.1844 11.1518 53.7151 11.4932 53.1498 11.7278C52.5951 11.9625 51.9818 12.0798 51.3098 12.0798C50.4458 12.0798 49.6778 11.8985 49.0058 11.5358C48.3444 11.1625 47.8271 10.6505 47.4538 9.99983C47.0804 9.34917 46.8938 8.61317 46.8938 7.79183C46.8938 6.9705 47.0698 6.2345 47.4218 5.58383C47.7844 4.93317 48.2751 4.4265 48.8938 4.06383C49.5231 3.70116 50.2271 3.51983 51.0058 3.51983C51.7844 3.51983 52.4831 3.70116 53.1018 4.06383C53.7204 4.4265 54.2058 4.93317 54.5578 5.58383C54.9098 6.22383 55.0858 6.95983 55.0858 7.79183L55.0698 8.14383ZM51.0058 4.49583C50.1951 4.49583 49.5124 4.75717 48.9578 5.27983C48.4138 5.79183 48.1044 6.46383 48.0298 7.29583H53.9978C53.9231 6.46383 53.6084 5.79183 53.0538 5.27983C52.5098 4.75717 51.8271 4.49583 51.0058 4.49583ZM49.5818 1.90383C49.3898 1.90383 49.2244 1.83983 49.0858 1.71183C48.9578 1.58383 48.8938 1.4185 48.8938 1.21583C48.8938 1.02383 48.9578 0.863832 49.0858 0.735831C49.2244 0.597165 49.3898 0.527832 49.5818 0.527832C49.7631 0.527832 49.9231 0.597165 50.0618 0.735831C50.2004 0.863832 50.2698 1.02383 50.2698 1.21583C50.2698 1.40783 50.2004 1.57317 50.0618 1.71183C49.9338 1.83983 49.7738 1.90383 49.5818 1.90383ZM52.4298 1.90383C52.2378 1.90383 52.0724 1.83983 51.9338 1.71183C51.8058 1.57317 51.7418 1.40783 51.7418 1.21583C51.7418 1.02383 51.8111 0.863832 51.9498 0.735831C52.0884 0.597165 52.2484 0.527832 52.4298 0.527832C52.6218 0.527832 52.7818 0.597165 52.9098 0.735831C53.0484 0.863832 53.1178 1.02383 53.1178 1.21583C53.1178 1.4185 53.0484 1.58383 52.9098 1.71183C52.7818 1.83983 52.6218 1.90383 52.4298 1.90383Z" fill="#E6E6E6"/>
<path d="M67.0084 3.58383V11.9998H65.9684V5.34383L62.5604 10.9758H62.0484L58.6404 5.32783V11.9998H57.6004V3.58383H58.7524L62.3204 9.64783L65.9524 3.58383H67.0084Z" fill="#E6E6E6"/>
<path d="M77.9485 12.0798C77.1165 12.0798 76.3698 11.8985 75.7085 11.5358C75.0578 11.1732 74.5458 10.6665 74.1725 10.0158C73.7992 9.3545 73.6125 8.61317 73.6125 7.79183C73.6125 6.9705 73.7992 6.2345 74.1725 5.58383C74.5458 4.93317 75.0578 4.4265 75.7085 4.06383C76.3698 3.70116 77.1165 3.51983 77.9485 3.51983C78.6738 3.51983 79.3192 3.66383 79.8845 3.95183C80.4605 4.22917 80.9138 4.63983 81.2445 5.18383L80.3965 5.75983C80.1192 5.34383 79.7672 5.0345 79.3405 4.83183C78.9138 4.6185 78.4498 4.51183 77.9485 4.51183C77.3405 4.51183 76.7912 4.6505 76.3005 4.92783C75.8205 5.1945 75.4418 5.5785 75.1645 6.07983C74.8978 6.58117 74.7645 7.15183 74.7645 7.79183C74.7645 8.4425 74.8978 9.0185 75.1645 9.51983C75.4418 10.0105 75.8205 10.3945 76.3005 10.6718C76.7912 10.9385 77.3405 11.0718 77.9485 11.0718C78.4498 11.0718 78.9138 10.9705 79.3405 10.7678C79.7672 10.5652 80.1192 10.2558 80.3965 9.83983L81.2445 10.4158C80.9138 10.9598 80.4605 11.3758 79.8845 11.6638C79.3085 11.9412 78.6632 12.0798 77.9485 12.0798Z" fill="#E6E6E6"/>
<path d="M89.2079 4.59183H86.0239V11.9998H84.8879V4.59183H81.7039V3.58383H89.2079V4.59183Z" fill="#E6E6E6"/>
<path d="M95.1864 3.51983C95.9757 3.51983 96.6904 3.70116 97.3304 4.06383C97.9704 4.41583 98.4717 4.91717 98.8344 5.56783C99.197 6.2185 99.3784 6.95983 99.3784 7.79183C99.3784 8.6345 99.197 9.38116 98.8344 10.0318C98.4717 10.6825 97.9704 11.1892 97.3304 11.5518C96.701 11.9038 95.9864 12.0798 95.1864 12.0798C94.5037 12.0798 93.8851 11.9412 93.3304 11.6638C92.7864 11.3758 92.3384 10.9598 91.9864 10.4158V15.1038H90.8504V3.58383H91.9384V5.24783C92.2797 4.69316 92.7277 4.2665 93.2824 3.96783C93.8477 3.66916 94.4824 3.51983 95.1864 3.51983ZM95.1064 11.0718C95.6931 11.0718 96.2264 10.9385 96.7064 10.6718C97.1864 10.3945 97.5597 10.0052 97.8264 9.50383C98.1037 9.0025 98.2424 8.43183 98.2424 7.79183C98.2424 7.15183 98.1037 6.5865 97.8264 6.09583C97.5597 5.5945 97.1864 5.20517 96.7064 4.92783C96.2264 4.6505 95.6931 4.51183 95.1064 4.51183C94.5091 4.51183 93.9704 4.6505 93.4904 4.92783C93.021 5.20517 92.6477 5.5945 92.3704 6.09583C92.1037 6.5865 91.9704 7.15183 91.9704 7.79183C91.9704 8.43183 92.1037 9.0025 92.3704 9.50383C92.6477 10.0052 93.021 10.3945 93.4904 10.6718C93.9704 10.9385 94.5091 11.0718 95.1064 11.0718Z" fill="#E6E6E6"/>
<path d="M109.179 8.14383H102.139C102.203 9.0185 102.539 9.72783 103.147 10.2718C103.755 10.8052 104.523 11.0718 105.451 11.0718C105.974 11.0718 106.454 10.9812 106.891 10.7998C107.328 10.6078 107.707 10.3305 108.027 9.96783L108.667 10.7038C108.294 11.1518 107.824 11.4932 107.259 11.7278C106.704 11.9625 106.091 12.0798 105.419 12.0798C104.555 12.0798 103.787 11.8985 103.115 11.5358C102.454 11.1625 101.936 10.6505 101.563 9.99983C101.19 9.34917 101.003 8.61317 101.003 7.79183C101.003 6.9705 101.179 6.2345 101.531 5.58383C101.894 4.93317 102.384 4.4265 103.003 4.06383C103.632 3.70116 104.336 3.51983 105.115 3.51983C105.894 3.51983 106.592 3.70116 107.211 4.06383C107.83 4.4265 108.315 4.93317 108.667 5.58383C109.019 6.22383 109.195 6.95983 109.195 7.79183L109.179 8.14383ZM105.115 4.49583C104.304 4.49583 103.622 4.75717 103.067 5.27983C102.523 5.79183 102.214 6.46383 102.139 7.29583H108.107C108.032 6.46383 107.718 5.79183 107.163 5.27983C106.619 4.75717 105.936 4.49583 105.115 4.49583Z" fill="#E6E6E6"/>
<path d="M121.118 3.58383V11.9998H120.078V5.34383L116.67 10.9758H116.158L112.75 5.32783V11.9998H111.71V3.58383H112.862L116.43 9.64783L120.062 3.58383H121.118Z" fill="#E6E6E6"/>
<path d="M131.23 3.58383V11.9998H130.094V4.59183H126.062L125.95 6.67183C125.865 8.42117 125.662 9.76517 125.342 10.7038C125.022 11.6425 124.452 12.1118 123.63 12.1118C123.406 12.1118 123.134 12.0692 122.814 11.9838L122.894 11.0078C123.086 11.0505 123.22 11.0718 123.294 11.0718C123.732 11.0718 124.062 10.8692 124.286 10.4638C124.51 10.0585 124.66 9.55717 124.734 8.95983C124.809 8.3625 124.873 7.57316 124.926 6.59183L125.07 3.58383H131.23Z" fill="#E6E6E6"/>
<path d="M141.82 8.14383H134.78C134.844 9.0185 135.18 9.72783 135.788 10.2718C136.396 10.8052 137.164 11.0718 138.092 11.0718C138.614 11.0718 139.094 10.9812 139.532 10.7998C139.969 10.6078 140.348 10.3305 140.668 9.96783L141.308 10.7038C140.934 11.1518 140.465 11.4932 139.9 11.7278C139.345 11.9625 138.732 12.0798 138.06 12.0798C137.196 12.0798 136.428 11.8985 135.756 11.5358C135.094 11.1625 134.577 10.6505 134.204 9.99983C133.83 9.34917 133.644 8.61317 133.644 7.79183C133.644 6.9705 133.82 6.2345 134.172 5.58383C134.534 4.93317 135.025 4.4265 135.644 4.06383C136.273 3.70116 136.977 3.51983 137.756 3.51983C138.534 3.51983 139.233 3.70116 139.852 4.06383C140.47 4.4265 140.956 4.93317 141.308 5.58383C141.66 6.22383 141.836 6.95983 141.836 7.79183L141.82 8.14383ZM137.756 4.49583C136.945 4.49583 136.262 4.75717 135.708 5.27983C135.164 5.79183 134.854 6.46383 134.78 7.29583H140.748C140.673 6.46383 140.358 5.79183 139.804 5.27983C139.26 4.75717 138.577 4.49583 137.756 4.49583Z" fill="#E6E6E6"/>
<path d="M144.35 3.58383H145.486V7.31183H150.782V3.58383H151.918V11.9998H150.782V8.28783H145.486V11.9998H144.35V3.58383Z" fill="#E6E6E6"/>
<path d="M155.147 3.58383H156.283V10.2718L161.899 3.58383H162.907V11.9998H161.771V5.31183L156.171 11.9998H155.147V3.58383Z" fill="#E6E6E6"/>
<path d="M166.163 3.58383H167.299V10.2718L172.915 3.58383H173.923V11.9998H172.787V5.31183L167.187 11.9998H166.163V3.58383Z" fill="#E6E6E6"/>
<path d="M188.518 3.58383L184.31 13.0078C183.969 13.7972 183.574 14.3572 183.126 14.6878C182.678 15.0185 182.139 15.1838 181.51 15.1838C181.105 15.1838 180.726 15.1198 180.374 14.9918C180.022 14.8638 179.718 14.6718 179.462 14.4158L179.99 13.5678C180.417 13.9945 180.929 14.2078 181.526 14.2078C181.91 14.2078 182.235 14.1012 182.502 13.8878C182.779 13.6745 183.035 13.3118 183.27 12.7998L183.638 11.9838L179.878 3.58383H181.062L184.23 10.7358L187.398 3.58383H188.518Z" fill="#E6E6E6"/>
<path d="M196.793 3.58383V11.9998H195.657V4.59183H191.625L191.513 6.67183C191.428 8.42117 191.225 9.76517 190.905 10.7038C190.585 11.6425 190.014 12.1118 189.193 12.1118C188.969 12.1118 188.697 12.0692 188.377 11.9838L188.457 11.0078C188.649 11.0505 188.782 11.0718 188.857 11.0718C189.294 11.0718 189.625 10.8692 189.849 10.4638C190.073 10.0585 190.222 9.55717 190.297 8.95983C190.372 8.3625 190.436 7.57316 190.489 6.59183L190.633 3.58383H196.793Z" fill="#E6E6E6"/>
<path d="M207.174 3.58383L202.966 13.0078C202.625 13.7972 202.23 14.3572 201.782 14.6878C201.334 15.0185 200.796 15.1838 200.166 15.1838C199.761 15.1838 199.382 15.1198 199.03 14.9918C198.678 14.8638 198.374 14.6718 198.118 14.4158L198.646 13.5678C199.073 13.9945 199.585 14.2078 200.182 14.2078C200.566 14.2078 200.892 14.1012 201.158 13.8878C201.436 13.6745 201.692 13.3118 201.926 12.7998L202.294 11.9838L198.534 3.58383H199.718L202.886 10.7358L206.054 3.58383H207.174Z" fill="#E6E6E6"/>
<path d="M215.296 3.58383V11.9998H214.16V8.49583C213.189 8.9225 212.235 9.13583 211.296 9.13583C210.283 9.13583 209.493 8.9065 208.928 8.44783C208.363 7.9785 208.08 7.27983 208.08 6.35183V3.58383H209.216V6.28783C209.216 6.91717 209.419 7.39717 209.824 7.72783C210.229 8.04783 210.789 8.20783 211.504 8.20783C212.293 8.20783 213.179 7.99983 214.16 7.58383V3.58383H215.296Z" fill="#E6E6E6"/>
<path d="M230.138 3.58383V11.9998H218.522V3.58383H219.658V11.0078H223.786V3.58383H224.922V11.0078H229.002V3.58383H230.138Z" fill="#E6E6E6"/>
<path d="M233.382 3.58383H234.518V10.2718L240.134 3.58383H241.142V11.9998H240.006V5.31183L234.406 11.9998H233.382V3.58383Z" fill="#E6E6E6"/>
<path d="M250.317 4.59183H247.133V11.9998H245.997V4.59183H242.813V3.58383H250.317V4.59183Z" fill="#E6E6E6"/>
<path d="M255.576 6.55983C256.632 6.5705 257.432 6.80517 257.976 7.26383C258.53 7.7225 258.808 8.38383 258.808 9.24783C258.808 10.1438 258.509 10.8318 257.912 11.3118C257.325 11.7918 256.472 12.0265 255.352 12.0158L251.96 11.9998V3.58383H253.096V6.52783L255.576 6.55983ZM255.288 11.1518C256.066 11.1625 256.653 11.0078 257.048 10.6878C257.453 10.3572 257.656 9.87717 257.656 9.24783C257.656 8.62917 257.458 8.1705 257.064 7.87183C256.669 7.57317 256.077 7.4185 255.288 7.40783L253.096 7.37583V11.1198L255.288 11.1518Z" fill="#E6E6E6"/>
<path d="M10.168 23.5838V31.9998H9.03201V24.5918H3.75201V31.9998H2.61601V23.5838H10.168Z" fill="#E6E6E6"/>
<path d="M16.8693 32.0798C16.0586 32.0798 15.3279 31.8985 14.6773 31.5358C14.0266 31.1625 13.5146 30.6505 13.1413 29.9998C12.7679 29.3492 12.5813 28.6132 12.5813 27.7918C12.5813 26.9705 12.7679 26.2345 13.1413 25.5838C13.5146 24.9332 14.0266 24.4265 14.6773 24.0638C15.3279 23.7012 16.0586 23.5198 16.8693 23.5198C17.6799 23.5198 18.4106 23.7012 19.0613 24.0638C19.7119 24.4265 20.2186 24.9332 20.5813 25.5838C20.9546 26.2345 21.1413 26.9705 21.1413 27.7918C21.1413 28.6132 20.9546 29.3492 20.5813 29.9998C20.2186 30.6505 19.7119 31.1625 19.0613 31.5358C18.4106 31.8985 17.6799 32.0798 16.8693 32.0798ZM16.8693 31.0718C17.4666 31.0718 17.9999 30.9385 18.4693 30.6718C18.9493 30.3945 19.3226 30.0052 19.5893 29.5038C19.8559 29.0025 19.9893 28.4318 19.9893 27.7918C19.9893 27.1518 19.8559 26.5812 19.5893 26.0798C19.3226 25.5785 18.9493 25.1945 18.4693 24.9278C17.9999 24.6505 17.4666 24.5118 16.8693 24.5118C16.2719 24.5118 15.7333 24.6505 15.2533 24.9278C14.7839 25.1945 14.4106 25.5785 14.1333 26.0798C13.8666 26.5812 13.7333 27.1518 13.7333 27.7918C13.7333 28.4318 13.8666 29.0025 14.1333 29.5038C14.4106 30.0052 14.7839 30.3945 15.2533 30.6718C15.7333 30.9385 16.2719 31.0718 16.8693 31.0718Z" fill="#E6E6E6"/>
<path d="M30.4023 23.5838V31.9998H29.2663V24.5918H25.2343L25.1223 26.6718C25.0369 28.4212 24.8343 29.7652 24.5143 30.7038C24.1943 31.6425 23.6236 32.1118 22.8023 32.1118C22.5783 32.1118 22.3063 32.0692 21.9863 31.9838L22.0663 31.0078C22.2583 31.0505 22.3916 31.0718 22.4663 31.0718C22.9036 31.0718 23.2343 30.8692 23.4583 30.4638C23.6823 30.0585 23.8316 29.5572 23.9063 28.9598C23.9809 28.3625 24.0449 27.5732 24.0983 26.5918L24.2423 23.5838H30.4023Z" fill="#E6E6E6"/>
<path d="M37.2476 26.5598C38.3036 26.5705 39.1036 26.8052 39.6476 27.2638C40.2023 27.7225 40.4796 28.3838 40.4796 29.2478C40.4796 30.1438 40.181 30.8318 39.5836 31.3118C38.997 31.7918 38.1436 32.0265 37.0236 32.0158L33.6316 31.9998V23.5838H34.7676V26.5278L37.2476 26.5598ZM36.9596 31.1518C37.7383 31.1625 38.325 31.0078 38.7196 30.6878C39.125 30.3572 39.3276 29.8772 39.3276 29.2478C39.3276 28.6292 39.1303 28.1705 38.7356 27.8718C38.341 27.5732 37.749 27.4185 36.9596 27.4078L34.7676 27.3758V31.1198L36.9596 31.1518Z" fill="#E6E6E6"/>
<path d="M46.6651 27.6158C47.2625 27.7545 47.7211 27.9945 48.0411 28.3358C48.3718 28.6772 48.5371 29.0932 48.5371 29.5838C48.5371 30.0745 48.3665 30.5118 48.0251 30.8958C47.6945 31.2798 47.2411 31.5785 46.6651 31.7918C46.0891 31.9945 45.4545 32.0958 44.7611 32.0958C44.1531 32.0958 43.5558 32.0105 42.9691 31.8398C42.3825 31.6585 41.8705 31.3972 41.4331 31.0558L41.8171 30.2078C42.2011 30.4958 42.6491 30.7198 43.1611 30.8798C43.6731 31.0398 44.1905 31.1198 44.7131 31.1198C45.4918 31.1198 46.1265 30.9758 46.6171 30.6878C47.1185 30.3892 47.3691 29.9892 47.3691 29.4878C47.3691 29.0398 47.1665 28.6932 46.7611 28.4478C46.3558 28.1918 45.8011 28.0638 45.0971 28.0638H43.6571V27.2318H45.0331C45.6625 27.2318 46.1691 27.1145 46.5531 26.8798C46.9371 26.6345 47.1291 26.3092 47.1291 25.9038C47.1291 25.4558 46.9105 25.1038 46.4731 24.8478C46.0465 24.5918 45.4865 24.4638 44.7931 24.4638C43.8865 24.4638 42.9905 24.6932 42.1051 25.1518L41.7851 24.2718C42.7878 23.7492 43.8278 23.4878 44.9051 23.4878C45.5451 23.4878 46.1211 23.5838 46.6331 23.7758C47.1558 23.9572 47.5611 24.2185 47.8491 24.5598C48.1478 24.9012 48.2971 25.2958 48.2971 25.7438C48.2971 26.1705 48.1478 26.5492 47.8491 26.8798C47.5611 27.2105 47.1665 27.4558 46.6651 27.6158Z" fill="#E6E6E6"/>
<path d="M54.588 32.0798C53.7773 32.0798 53.0467 31.8985 52.396 31.5358C51.7453 31.1625 51.2333 30.6505 50.86 29.9998C50.4867 29.3492 50.3 28.6132 50.3 27.7918C50.3 26.9705 50.4867 26.2345 50.86 25.5838C51.2333 24.9332 51.7453 24.4265 52.396 24.0638C53.0467 23.7012 53.7773 23.5198 54.588 23.5198C55.3987 23.5198 56.1293 23.7012 56.78 24.0638C57.4307 24.4265 57.9373 24.9332 58.3 25.5838C58.6733 26.2345 58.86 26.9705 58.86 27.7918C58.86 28.6132 58.6733 29.3492 58.3 29.9998C57.9373 30.6505 57.4307 31.1625 56.78 31.5358C56.1293 31.8985 55.3987 32.0798 54.588 32.0798ZM54.588 31.0718C55.1853 31.0718 55.7187 30.9385 56.188 30.6718C56.668 30.3945 57.0413 30.0052 57.308 29.5038C57.5747 29.0025 57.708 28.4318 57.708 27.7918C57.708 27.1518 57.5747 26.5812 57.308 26.0798C57.0413 25.5785 56.668 25.1945 56.188 24.9278C55.7187 24.6505 55.1853 24.5118 54.588 24.5118C53.9907 24.5118 53.452 24.6505 52.972 24.9278C52.5027 25.1945 52.1293 25.5785 51.852 26.0798C51.5853 26.5812 51.452 27.1518 51.452 27.7918C51.452 28.4318 51.5853 29.0025 51.852 29.5038C52.1293 30.0052 52.5027 30.3945 52.972 30.6718C53.452 30.9385 53.9907 31.0718 54.588 31.0718Z" fill="#E6E6E6"/>
<path d="M66.6479 27.6478C67.7892 27.9145 68.3599 28.6025 68.3599 29.7118C68.3599 30.4478 68.0879 31.0132 67.5439 31.4078C66.9999 31.8025 66.1892 31.9998 65.1119 31.9998H61.2879V23.5838H64.9999C65.9599 23.5838 66.7119 23.7705 67.2559 24.1438C67.7999 24.5172 68.0719 25.0505 68.0719 25.7438C68.0719 26.2025 67.9439 26.5972 67.6879 26.9278C67.4425 27.2478 67.0959 27.4878 66.6479 27.6478ZM62.3919 27.3278H64.9199C65.5706 27.3278 66.0665 27.2052 66.4079 26.9598C66.7599 26.7145 66.9359 26.3572 66.9359 25.8878C66.9359 25.4185 66.7599 25.0665 66.4079 24.8318C66.0665 24.5972 65.5706 24.4798 64.9199 24.4798H62.3919V27.3278ZM65.0639 31.1038C65.7892 31.1038 66.3332 30.9865 66.6959 30.7518C67.0586 30.5172 67.2399 30.1492 67.2399 29.6478C67.2399 29.1465 67.0745 28.7785 66.7439 28.5438C66.4132 28.2985 65.8905 28.1758 65.1759 28.1758H62.3919V31.1038H65.0639Z" fill="#E6E6E6"/>
<path d="M73.9183 23.5198C75.0169 23.5198 75.8596 23.7972 76.4463 24.3518C77.0329 24.8958 77.3263 25.7065 77.3263 26.7838V31.9998H76.2383V30.6878C75.9823 31.1252 75.6036 31.4665 75.1023 31.7118C74.6116 31.9572 74.0249 32.0798 73.3423 32.0798C72.4036 32.0798 71.6569 31.8558 71.1023 31.4078C70.5476 30.9598 70.2703 30.3678 70.2703 29.6318C70.2703 28.9172 70.5263 28.3412 71.0383 27.9038C71.5609 27.4665 72.3876 27.2478 73.5183 27.2478H76.1903V26.7358C76.1903 26.0105 75.9876 25.4612 75.5823 25.0878C75.1769 24.7038 74.5849 24.5118 73.8063 24.5118C73.2729 24.5118 72.7609 24.6025 72.2703 24.7838C71.7796 24.9545 71.3583 25.1945 71.0063 25.5038L70.4943 24.6558C70.9209 24.2932 71.4329 24.0158 72.0303 23.8238C72.6276 23.6212 73.2569 23.5198 73.9183 23.5198ZM73.5183 31.1838C74.1583 31.1838 74.7076 31.0398 75.1663 30.7518C75.6249 30.4532 75.9663 30.0265 76.1903 29.4718V28.0958H73.5503C72.1103 28.0958 71.3903 28.5972 71.3903 29.5998C71.3903 30.0905 71.5769 30.4798 71.9503 30.7678C72.3236 31.0452 72.8463 31.1838 73.5183 31.1838Z" fill="#E6E6E6"/>
<path d="M86.2704 24.5918H83.0864V31.9998H81.9504V24.5918H78.7664V23.5838H86.2704V24.5918Z" fill="#E6E6E6"/>
<path d="M94.8823 28.1438H87.8423C87.9063 29.0185 88.2423 29.7278 88.8503 30.2718C89.4583 30.8052 90.2263 31.0718 91.1543 31.0718C91.6769 31.0718 92.1569 30.9812 92.5943 30.7998C93.0316 30.6078 93.4103 30.3305 93.7303 29.9678L94.3703 30.7038C93.9969 31.1518 93.5276 31.4932 92.9623 31.7278C92.4076 31.9625 91.7943 32.0798 91.1223 32.0798C90.2583 32.0798 89.4903 31.8985 88.8183 31.5358C88.1569 31.1625 87.6396 30.6505 87.2663 29.9998C86.8929 29.3492 86.7063 28.6132 86.7063 27.7918C86.7063 26.9705 86.8823 26.2345 87.2343 25.5838C87.5969 24.9332 88.0876 24.4265 88.7063 24.0638C89.3356 23.7012 90.0396 23.5198 90.8183 23.5198C91.5969 23.5198 92.2956 23.7012 92.9143 24.0638C93.5329 24.4265 94.0183 24.9332 94.3703 25.5838C94.7223 26.2238 94.8983 26.9598 94.8983 27.7918L94.8823 28.1438ZM90.8183 24.4958C90.0076 24.4958 89.3249 24.7572 88.7703 25.2798C88.2263 25.7918 87.9169 26.4638 87.8423 27.2958H93.8103C93.7356 26.4638 93.4209 25.7918 92.8663 25.2798C92.3223 24.7572 91.6396 24.4958 90.8183 24.4958Z" fill="#E6E6E6"/>
<path d="M104.121 23.5838V31.9998H102.985V24.5918H98.953L98.841 26.6718C98.7557 28.4212 98.553 29.7652 98.233 30.7038C97.913 31.6425 97.3423 32.1118 96.521 32.1118C96.297 32.1118 96.025 32.0692 95.705 31.9838L95.785 31.0078C95.977 31.0505 96.1103 31.0718 96.185 31.0718C96.6223 31.0718 96.953 30.8692 97.177 30.4638C97.401 30.0585 97.5503 29.5572 97.625 28.9598C97.6997 28.3625 97.7637 27.5732 97.817 26.5918L97.961 23.5838H104.121Z" fill="#E6E6E6"/>
<path d="M110.966 26.5598C112.022 26.5705 112.822 26.8052 113.366 27.2638C113.921 27.7225 114.198 28.3838 114.198 29.2478C114.198 30.1438 113.9 30.8318 113.302 31.3118C112.716 31.7918 111.862 32.0265 110.742 32.0158L107.35 31.9998V23.5838H108.486V26.5278L110.966 26.5598ZM110.678 31.1518C111.457 31.1625 112.044 31.0078 112.438 30.6878C112.844 30.3572 113.046 29.8772 113.046 29.2478C113.046 28.6292 112.849 28.1705 112.454 27.8718C112.06 27.5732 111.468 27.4185 110.678 27.4078L108.486 27.3758V31.1198L110.678 31.1518Z" fill="#E6E6E6"/>
<path d="M119.886 32.0798C119.054 32.0798 118.307 31.8985 117.646 31.5358C116.995 31.1732 116.483 30.6665 116.11 30.0158C115.737 29.3545 115.55 28.6132 115.55 27.7918C115.55 26.9705 115.737 26.2345 116.11 25.5838C116.483 24.9332 116.995 24.4265 117.646 24.0638C118.307 23.7012 119.054 23.5198 119.886 23.5198C120.611 23.5198 121.257 23.6638 121.822 23.9518C122.398 24.2292 122.851 24.6398 123.182 25.1838L122.334 25.7598C122.057 25.3438 121.705 25.0345 121.278 24.8318C120.851 24.6185 120.387 24.5118 119.886 24.5118C119.278 24.5118 118.729 24.6505 118.238 24.9278C117.758 25.1945 117.379 25.5785 117.102 26.0798C116.835 26.5812 116.702 27.1518 116.702 27.7918C116.702 28.4425 116.835 29.0185 117.102 29.5198C117.379 30.0105 117.758 30.3945 118.238 30.6718C118.729 30.9385 119.278 31.0718 119.886 31.0718C120.387 31.0718 120.851 30.9705 121.278 30.7678C121.705 30.5652 122.057 30.2558 122.334 29.8398L123.182 30.4158C122.851 30.9598 122.398 31.3758 121.822 31.6638C121.246 31.9412 120.601 32.0798 119.886 32.0798Z" fill="#E6E6E6"/>
<path d="M128.438 28.2558H126.518V31.9998H125.382V23.5838H126.518V27.2798H128.454L131.414 23.5838H132.646L129.334 27.6638L132.886 31.9998H131.542L128.438 28.2558Z" fill="#E6E6E6"/>
<path d="M134.678 23.5838H135.814V30.2718L141.43 23.5838H142.439V31.9998H141.303V25.3118L135.702 31.9998H134.678V23.5838Z" fill="#E6E6E6"/>
<path d="M145.694 23.5838H146.83V30.2718L152.446 23.5838H153.454V31.9998H152.318V25.3118L146.718 31.9998H145.694V23.5838ZM149.518 22.3678C148.793 22.3678 148.217 22.1865 147.79 21.8238C147.363 21.4612 147.145 20.9492 147.134 20.2878H147.95C147.961 20.7038 148.11 21.0398 148.398 21.2958C148.686 21.5412 149.059 21.6638 149.518 21.6638C149.977 21.6638 150.35 21.5412 150.638 21.2958C150.937 21.0398 151.091 20.7038 151.102 20.2878H151.918C151.907 20.9492 151.683 21.4612 151.246 21.8238C150.819 22.1865 150.243 22.3678 149.518 22.3678Z" fill="#E6E6E6"/>
<path d="M164.369 32.0798C163.559 32.0798 162.828 31.8985 162.177 31.5358C161.527 31.1625 161.015 30.6505 160.641 29.9998C160.268 29.3492 160.081 28.6132 160.081 27.7918C160.081 26.9705 160.268 26.2345 160.641 25.5838C161.015 24.9332 161.527 24.4265 162.177 24.0638C162.828 23.7012 163.559 23.5198 164.369 23.5198C165.18 23.5198 165.911 23.7012 166.561 24.0638C167.212 24.4265 167.719 24.9332 168.081 25.5838C168.455 26.2345 168.641 26.9705 168.641 27.7918C168.641 28.6132 168.455 29.3492 168.081 29.9998C167.719 30.6505 167.212 31.1625 166.561 31.5358C165.911 31.8985 165.18 32.0798 164.369 32.0798ZM164.369 31.0718C164.967 31.0718 165.5 30.9385 165.969 30.6718C166.449 30.3945 166.823 30.0052 167.089 29.5038C167.356 29.0025 167.489 28.4318 167.489 27.7918C167.489 27.1518 167.356 26.5812 167.089 26.0798C166.823 25.5785 166.449 25.1945 165.969 24.9278C165.5 24.6505 164.967 24.5118 164.369 24.5118C163.772 24.5118 163.233 24.6505 162.753 24.9278C162.284 25.1945 161.911 25.5785 161.633 26.0798C161.367 26.5812 161.233 27.1518 161.233 27.7918C161.233 28.4318 161.367 29.0025 161.633 29.5038C161.911 30.0052 162.284 30.3945 162.753 30.6718C163.233 30.9385 163.772 31.0718 164.369 31.0718Z" fill="#E6E6E6"/>
<path d="M178.621 23.5838V31.9998H177.485V24.5918H172.205V31.9998H171.069V23.5838H178.621Z" fill="#E6E6E6"/>
<path d="M185.386 26.5598C186.442 26.5705 187.248 26.8052 187.802 27.2638C188.357 27.7225 188.634 28.3838 188.634 29.2478C188.634 30.1438 188.336 30.8318 187.738 31.3118C187.141 31.7918 186.288 32.0265 185.178 32.0158L181.85 31.9998V23.5838H182.986V26.5278L185.386 26.5598ZM190.042 23.5838H191.178V31.9998H190.042V23.5838ZM185.114 31.1518C185.893 31.1625 186.48 31.0078 186.874 30.6878C187.28 30.3572 187.482 29.8772 187.482 29.2478C187.482 28.6292 187.285 28.1705 186.89 27.8718C186.496 27.5732 185.904 27.4185 185.114 27.4078L182.986 27.3758V31.1198L185.114 31.1518Z" fill="#E6E6E6"/>
<path d="M200.333 24.5918H197.149V31.9998H196.013V24.5918H192.829V23.5838H200.333V24.5918Z" fill="#E6E6E6"/>
<path d="M215.571 23.5838V31.9998H214.531V25.3438L211.123 30.9758H210.611L207.203 25.3278V31.9998H206.163V23.5838H207.315L210.883 29.6478L214.515 23.5838H215.571Z" fill="#E6E6E6"/>
<path d="M222.34 26.5598C223.396 26.5705 224.201 26.8052 224.755 27.2638C225.31 27.7225 225.587 28.3838 225.587 29.2478C225.587 30.1438 225.289 30.8318 224.691 31.3118C224.094 31.7918 223.241 32.0265 222.132 32.0158L218.803 31.9998V23.5838H219.939V26.5278L222.34 26.5598ZM226.995 23.5838H228.132V31.9998H226.995V23.5838ZM222.068 31.1518C222.846 31.1625 223.433 31.0078 223.827 30.6878C224.233 30.3572 224.436 29.8772 224.436 29.2478C224.436 28.6292 224.238 28.1705 223.844 27.8718C223.449 27.5732 222.857 27.4185 222.068 27.4078L219.939 27.3758V31.1198L222.068 31.1518Z" fill="#E6E6E6"/>
<path d="M9.76801 43.5838L5.56001 53.0078C5.21867 53.7972 4.82401 54.3572 4.37601 54.6878C3.92801 55.0185 3.38934 55.1838 2.76001 55.1838C2.35467 55.1838 1.97601 55.1198 1.62401 54.9918C1.27201 54.8638 0.968006 54.6718 0.712006 54.4158L1.24001 53.5678C1.66667 53.9945 2.17867 54.2078 2.77601 54.2078C3.16001 54.2078 3.48534 54.1012 3.75201 53.8878C4.02934 53.6745 4.28534 53.3118 4.52001 52.7998L4.88801 51.9838L1.12801 43.5838H2.31201L5.48001 50.7358L8.64801 43.5838H9.76801Z" fill="#E6E6E6"/>
<path d="M19.0899 43.5838V51.9998H17.9539V44.5918H12.6739V51.9998H11.5379V43.5838H19.0899Z" fill="#E6E6E6"/>
<path d="M29.4711 43.5838L25.2631 53.0078C24.9218 53.7972 24.5271 54.3572 24.0791 54.6878C23.6311 55.0185 23.0925 55.1838 22.4631 55.1838C22.0578 55.1838 21.6791 55.1198 21.3271 54.9918C20.9751 54.8638 20.6711 54.6718 20.4151 54.4158L20.9431 53.5678C21.3698 53.9945 21.8818 54.2078 22.4791 54.2078C22.8631 54.2078 23.1885 54.1012 23.4551 53.8878C23.7325 53.6745 23.9885 53.3118 24.2231 52.7998L24.5911 51.9838L20.8311 43.5838H22.0151L25.1831 50.7358L28.3511 43.5838H29.4711Z" fill="#E6E6E6"/>
<path d="M34.5266 52.0798C33.6946 52.0798 32.948 51.8985 32.2866 51.5358C31.636 51.1732 31.124 50.6665 30.7506 50.0158C30.3773 49.3545 30.1906 48.6132 30.1906 47.7918C30.1906 46.9705 30.3773 46.2345 30.7506 45.5838C31.124 44.9332 31.636 44.4265 32.2866 44.0638C32.948 43.7012 33.6946 43.5198 34.5266 43.5198C35.252 43.5198 35.8973 43.6638 36.4626 43.9518C37.0386 44.2292 37.492 44.6398 37.8226 45.1838L36.9746 45.7598C36.6973 45.3438 36.3453 45.0345 35.9186 44.8318C35.492 44.6185 35.028 44.5118 34.5266 44.5118C33.9186 44.5118 33.3693 44.6505 32.8786 44.9278C32.3986 45.1945 32.02 45.5785 31.7426 46.0798C31.476 46.5812 31.3426 47.1518 31.3426 47.7918C31.3426 48.4425 31.476 49.0185 31.7426 49.5198C32.02 50.0105 32.3986 50.3945 32.8786 50.6718C33.3693 50.9385 33.9186 51.0718 34.5266 51.0718C35.028 51.0718 35.492 50.9705 35.9186 50.7678C36.3453 50.5652 36.6973 50.2558 36.9746 49.8398L37.8226 50.4158C37.492 50.9598 37.0386 51.3758 36.4626 51.6638C35.8866 51.9412 35.2413 52.0798 34.5266 52.0798Z" fill="#E6E6E6"/>
<path d="M43.0783 48.2558H41.1583V51.9998H40.0223V43.5838H41.1583V47.2798H43.0943L46.0543 43.5838H47.2863L43.9743 47.6638L47.5263 51.9998H46.1823L43.0783 48.2558Z" fill="#E6E6E6"/>
<path d="M52.0589 43.5198C53.1575 43.5198 54.0002 43.7972 54.5869 44.3518C55.1735 44.8958 55.4669 45.7065 55.4669 46.7838V51.9998H54.3789V50.6878C54.1229 51.1252 53.7442 51.4665 53.2429 51.7118C52.7522 51.9572 52.1655 52.0798 51.4829 52.0798C50.5442 52.0798 49.7975 51.8558 49.2429 51.4078C48.6882 50.9598 48.4109 50.3678 48.4109 49.6318C48.4109 48.9172 48.6669 48.3412 49.1789 47.9038C49.7015 47.4665 50.5282 47.2478 51.6589 47.2478H54.3309V46.7358C54.3309 46.0105 54.1282 45.4612 53.7229 45.0878C53.3175 44.7038 52.7255 44.5118 51.9469 44.5118C51.4135 44.5118 50.9015 44.6025 50.4109 44.7838C49.9202 44.9545 49.4989 45.1945 49.1469 45.5038L48.6349 44.6558C49.0615 44.2932 49.5735 44.0158 50.1709 43.8238C50.7682 43.6212 51.3975 43.5198 52.0589 43.5198ZM51.6589 51.1838C52.2989 51.1838 52.8482 51.0398 53.3069 50.7518C53.7655 50.4532 54.1069 50.0265 54.3309 49.4718V48.0958H51.6909C50.2509 48.0958 49.5309 48.5972 49.5309 49.5998C49.5309 50.0905 49.7175 50.4798 50.0909 50.7678C50.4642 51.0452 50.9869 51.1838 51.6589 51.1838Z" fill="#E6E6E6"/>
<path d="M65.851 48.1438H58.811C58.875 49.0185 59.211 49.7278 59.819 50.2718C60.427 50.8052 61.195 51.0718 62.123 51.0718C62.6457 51.0718 63.1257 50.9812 63.563 50.7998C64.0003 50.6078 64.379 50.3305 64.699 49.9678L65.339 50.7038C64.9657 51.1518 64.4963 51.4932 63.931 51.7278C63.3763 51.9625 62.763 52.0798 62.091 52.0798C61.227 52.0798 60.459 51.8985 59.787 51.5358C59.1257 51.1625 58.6083 50.6505 58.235 49.9998C57.8617 49.3492 57.675 48.6132 57.675 47.7918C57.675 46.9705 57.851 46.2345 58.203 45.5838C58.5657 44.9332 59.0563 44.4265 59.675 44.0638C60.3043 43.7012 61.0083 43.5198 61.787 43.5198C62.5657 43.5198 63.2643 43.7012 63.883 44.0638C64.5017 44.4265 64.987 44.9332 65.339 45.5838C65.691 46.2238 65.867 46.9598 65.867 47.7918L65.851 48.1438ZM61.787 44.4958C60.9763 44.4958 60.2937 44.7572 59.739 45.2798C59.195 45.7918 58.8857 46.4638 58.811 47.2958H64.779C64.7043 46.4638 64.3897 45.7918 63.835 45.2798C63.291 44.7572 62.6083 44.4958 61.787 44.4958Z" fill="#E6E6E6"/>
<path d="M77.7896 43.5838V51.9998H76.7496V45.3438L73.3416 50.9758H72.8296L69.4216 45.3278V51.9998H68.3816V43.5838H69.5336L73.1016 49.6478L76.7336 43.5838H77.7896Z" fill="#E6E6E6"/>
<path d="M81.1183 50.3358C81.3636 50.3358 81.5663 50.4212 81.7263 50.5918C81.8863 50.7518 81.9663 50.9545 81.9663 51.1998C81.9663 51.3278 81.9449 51.4665 81.9023 51.6158C81.8703 51.7652 81.8169 51.9358 81.7423 52.1278L81.0703 54.3358H80.3023L80.8463 52.0158C80.6756 51.9625 80.5369 51.8665 80.4303 51.7278C80.3236 51.5785 80.2703 51.4025 80.2703 51.1998C80.2703 50.9545 80.3503 50.7518 80.5103 50.5918C80.6703 50.4212 80.8729 50.3358 81.1183 50.3358Z" fill="#E6E6E6"/>
<path d="M94.9524 43.5838V51.9998H93.8164V48.4958C92.8457 48.9225 91.8911 49.1358 90.9524 49.1358C89.9391 49.1358 89.1497 48.9065 88.5844 48.4478C88.019 47.9785 87.7364 47.2798 87.7364 46.3518V43.5838H88.8724V46.2878C88.8724 46.9172 89.0751 47.3972 89.4804 47.7278C89.8857 48.0478 90.4457 48.2078 91.1604 48.2078C91.9497 48.2078 92.835 47.9998 93.8164 47.5838V43.5838H94.9524Z" fill="#E6E6E6"/>
<path d="M104.099 44.5918H100.915V51.9998H99.7785V44.5918H96.5945V43.5838H104.099V44.5918Z" fill="#E6E6E6"/>
<path d="M108.822 52.0798C108.012 52.0798 107.281 51.8985 106.63 51.5358C105.98 51.1625 105.468 50.6505 105.094 49.9998C104.721 49.3492 104.534 48.6132 104.534 47.7918C104.534 46.9705 104.721 46.2345 105.094 45.5838C105.468 44.9332 105.98 44.4265 106.63 44.0638C107.281 43.7012 108.012 43.5198 108.822 43.5198C109.633 43.5198 110.364 43.7012 111.014 44.0638C111.665 44.4265 112.172 44.9332 112.534 45.5838C112.908 46.2345 113.094 46.9705 113.094 47.7918C113.094 48.6132 112.908 49.3492 112.534 49.9998C112.172 50.6505 111.665 51.1625 111.014 51.5358C110.364 51.8985 109.633 52.0798 108.822 52.0798ZM108.822 51.0718C109.42 51.0718 109.953 50.9385 110.422 50.6718C110.902 50.3945 111.276 50.0052 111.542 49.5038C111.809 49.0025 111.942 48.4318 111.942 47.7918C111.942 47.1518 111.809 46.5812 111.542 46.0798C111.276 45.5785 110.902 45.1945 110.422 44.9278C109.953 44.6505 109.42 44.5118 108.822 44.5118C108.225 44.5118 107.686 44.6505 107.206 44.9278C106.737 45.1945 106.364 45.5785 106.086 46.0798C105.82 46.5812 105.686 47.1518 105.686 47.7918C105.686 48.4318 105.82 49.0025 106.086 49.5038C106.364 50.0052 106.737 50.3945 107.206 50.6718C107.686 50.9385 108.225 51.0718 108.822 51.0718Z" fill="#E6E6E6"/>
<path d="M129.118 43.5838V51.9998H128.078V45.3438L124.67 50.9758H124.158L120.75 45.3278V51.9998H119.71V43.5838H120.862L124.43 49.6478L128.062 43.5838H129.118Z" fill="#E6E6E6"/>
<path d="M132.35 43.5838H133.486V47.3118H138.782V43.5838H139.918V51.9998H138.782V48.2878H133.486V51.9998H132.35V43.5838Z" fill="#E6E6E6"/>
<path d="M146.619 52.0798C145.809 52.0798 145.078 51.8985 144.427 51.5358C143.777 51.1625 143.265 50.6505 142.891 49.9998C142.518 49.3492 142.331 48.6132 142.331 47.7918C142.331 46.9705 142.518 46.2345 142.891 45.5838C143.265 44.9332 143.777 44.4265 144.427 44.0638C145.078 43.7012 145.809 43.5198 146.619 43.5198C147.43 43.5198 148.161 43.7012 148.811 44.0638C149.462 44.4265 149.969 44.9332 150.331 45.5838C150.705 46.2345 150.891 46.9705 150.891 47.7918C150.891 48.6132 150.705 49.3492 150.331 49.9998C149.969 50.6505 149.462 51.1625 148.811 51.5358C148.161 51.8985 147.43 52.0798 146.619 52.0798ZM146.619 51.0718C147.217 51.0718 147.75 50.9385 148.219 50.6718C148.699 50.3945 149.073 50.0052 149.339 49.5038C149.606 49.0025 149.739 48.4318 149.739 47.7918C149.739 47.1518 149.606 46.5812 149.339 46.0798C149.073 45.5785 148.699 45.1945 148.219 44.9278C147.75 44.6505 147.217 44.5118 146.619 44.5118C146.022 44.5118 145.483 44.6505 145.003 44.9278C144.534 45.1945 144.161 45.5785 143.883 46.0798C143.617 46.5812 143.483 47.1518 143.483 47.7918C143.483 48.4318 143.617 49.0025 143.883 49.5038C144.161 50.0052 144.534 50.3945 145.003 50.6718C145.483 50.9385 146.022 51.0718 146.619 51.0718Z" fill="#E6E6E6"/>
<path d="M159.271 44.5918H154.455V51.9998H153.319V43.5838H159.271V44.5918Z" fill="#E6E6E6"/>
<path d="M160.913 43.5838H162.049V50.2718L167.665 43.5838H168.673V51.9998H167.537V45.3118L161.937 51.9998H160.913V43.5838Z" fill="#E6E6E6"/>
<path d="M179.288 48.1438H172.249C172.313 49.0185 172.649 49.7278 173.257 50.2718C173.865 50.8052 174.633 51.0718 175.561 51.0718C176.083 51.0718 176.563 50.9812 177.001 50.7998C177.438 50.6078 177.817 50.3305 178.137 49.9678L178.777 50.7038C178.403 51.1518 177.934 51.4932 177.368 51.7278C176.814 51.9625 176.201 52.0798 175.529 52.0798C174.665 52.0798 173.897 51.8985 173.225 51.5358C172.563 51.1625 172.046 50.6505 171.673 49.9998C171.299 49.3492 171.113 48.6132 171.113 47.7918C171.113 46.9705 171.289 46.2345 171.641 45.5838C172.003 44.9332 172.494 44.4265 173.113 44.0638C173.742 43.7012 174.446 43.5198 175.225 43.5198C176.003 43.5198 176.702 43.7012 177.32 44.0638C177.939 44.4265 178.425 44.9332 178.777 45.5838C179.129 46.2238 179.305 46.9598 179.305 47.7918L179.288 48.1438ZM175.225 44.4958C174.414 44.4958 173.731 44.7572 173.176 45.2798C172.632 45.7918 172.323 46.4638 172.249 47.2958H178.217C178.142 46.4638 177.827 45.7918 177.273 45.2798C176.729 44.7572 176.046 44.4958 175.225 44.4958Z" fill="#E6E6E6"/>
<path d="M2.61601 63.5838H3.75201V70.2718L9.36801 63.5838H10.376V71.9998H9.24001V65.3118L3.64001 71.9998H2.61601V63.5838Z" fill="#E6E6E6"/>
<path d="M17.5558 67.6158C18.1531 67.7545 18.6118 67.9945 18.9318 68.3358C19.2624 68.6772 19.4278 69.0932 19.4278 69.5838C19.4278 70.0745 19.2571 70.5118 18.9158 70.8958C18.5851 71.2798 18.1318 71.5785 17.5558 71.7918C16.9798 71.9945 16.3451 72.0958 15.6518 72.0958C15.0438 72.0958 14.4464 72.0105 13.8598 71.8398C13.2731 71.6585 12.7611 71.3972 12.3238 71.0558L12.7078 70.2078C13.0918 70.4958 13.5398 70.7198 14.0518 70.8798C14.5638 71.0398 15.0811 71.1198 15.6038 71.1198C16.3824 71.1198 17.0171 70.9758 17.5078 70.6878C18.0091 70.3892 18.2598 69.9892 18.2598 69.4878C18.2598 69.0398 18.0571 68.6932 17.6518 68.4478C17.2464 68.1918 16.6918 68.0638 15.9878 68.0638H14.5478V67.2318H15.9238C16.5531 67.2318 17.0598 67.1145 17.4438 66.8798C17.8278 66.6345 18.0198 66.3092 18.0198 65.9038C18.0198 65.4558 17.8011 65.1038 17.3638 64.8478C16.9371 64.5918 16.3771 64.4638 15.6838 64.4638C14.7771 64.4638 13.8811 64.6932 12.9958 65.1518L12.6758 64.2718C13.6784 63.7492 14.7184 63.4878 15.7958 63.4878C16.4358 63.4878 17.0118 63.5838 17.5238 63.7758C18.0464 63.9572 18.4518 64.2185 18.7398 64.5598C19.0384 64.9012 19.1878 65.2958 19.1878 65.7438C19.1878 66.1705 19.0384 66.5492 18.7398 66.8798C18.4518 67.2105 18.0571 67.4558 17.5558 67.6158Z" fill="#E6E6E6"/>
<path d="M27.3666 67.6478C28.508 67.9145 29.0786 68.6025 29.0786 69.7118C29.0786 70.4478 28.8066 71.0132 28.2626 71.4078C27.7186 71.8025 26.908 71.9998 25.8306 71.9998H22.0066V63.5838H25.7186C26.6786 63.5838 27.4306 63.7705 27.9746 64.1438C28.5186 64.5172 28.7906 65.0505 28.7906 65.7438C28.7906 66.2025 28.6626 66.5972 28.4066 66.9278C28.1613 67.2478 27.8146 67.4878 27.3666 67.6478ZM23.1106 67.3278H25.6386C26.2893 67.3278 26.7853 67.2052 27.1266 66.9598C27.4786 66.7145 27.6546 66.3572 27.6546 65.8878C27.6546 65.4185 27.4786 65.0665 27.1266 64.8318C26.7853 64.5972 26.2893 64.4798 25.6386 64.4798H23.1106V67.3278ZM25.7826 71.1038C26.508 71.1038 27.052 70.9865 27.4146 70.7518C27.7773 70.5172 27.9586 70.1492 27.9586 69.6478C27.9586 69.1465 27.7933 68.7785 27.4626 68.5438C27.132 68.2985 26.6093 68.1758 25.8946 68.1758H23.1106V71.1038H25.7826Z" fill="#E6E6E6"/>
<path d="M39.101 68.1438H32.061C32.125 69.0185 32.461 69.7278 33.069 70.2718C33.677 70.8052 34.445 71.0718 35.373 71.0718C35.8957 71.0718 36.3757 70.9812 36.813 70.7998C37.2503 70.6078 37.629 70.3305 37.949 69.9678L38.589 70.7038C38.2157 71.1518 37.7463 71.4932 37.181 71.7278C36.6263 71.9625 36.013 72.0798 35.341 72.0798C34.477 72.0798 33.709 71.8985 33.037 71.5358C32.3757 71.1625 31.8583 70.6505 31.485 69.9998C31.1117 69.3492 30.925 68.6132 30.925 67.7918C30.925 66.9705 31.101 66.2345 31.453 65.5838C31.8157 64.9332 32.3063 64.4265 32.925 64.0638C33.5543 63.7012 34.2583 63.5198 35.037 63.5198C35.8157 63.5198 36.5143 63.7012 37.133 64.0638C37.7517 64.4265 38.237 64.9332 38.589 65.5838C38.941 66.2238 39.117 66.9598 39.117 67.7918L39.101 68.1438ZM35.037 64.4958C34.2263 64.4958 33.5437 64.7572 32.989 65.2798C32.445 65.7918 32.1357 66.4638 32.061 67.2958H38.029C37.9543 66.4638 37.6397 65.7918 37.085 65.2798C36.541 64.7572 35.8583 64.4958 35.037 64.4958Z" fill="#E6E6E6"/>
<path d="M45.1516 72.0798C44.3196 72.0798 43.573 71.8985 42.9116 71.5358C42.261 71.1732 41.749 70.6665 41.3756 70.0158C41.0023 69.3545 40.8156 68.6132 40.8156 67.7918C40.8156 66.9705 41.0023 66.2345 41.3756 65.5838C41.749 64.9332 42.261 64.4265 42.9116 64.0638C43.573 63.7012 44.3196 63.5198 45.1516 63.5198C45.877 63.5198 46.5223 63.6638 47.0876 63.9518C47.6636 64.2292 48.117 64.6398 48.4476 65.1838L47.5996 65.7598C47.3223 65.3438 46.9703 65.0345 46.5436 64.8318C46.117 64.6185 45.653 64.5118 45.1516 64.5118C44.5436 64.5118 43.9943 64.6505 43.5036 64.9278C43.0236 65.1945 42.645 65.5785 42.3676 66.0798C42.101 66.5812 41.9676 67.1518 41.9676 67.7918C41.9676 68.4425 42.101 69.0185 42.3676 69.5198C42.645 70.0105 43.0236 70.3945 43.5036 70.6718C43.9943 70.9385 44.5436 71.0718 45.1516 71.0718C45.653 71.0718 46.117 70.9705 46.5436 70.7678C46.9703 70.5652 47.3223 70.2558 47.5996 69.8398L48.4476 70.4158C48.117 70.9598 47.6636 71.3758 47.0876 71.6638C46.5116 71.9412 45.8663 72.0798 45.1516 72.0798Z" fill="#E6E6E6"/>
<path d="M56.411 64.5918H53.227V71.9998H52.091V64.5918H48.907V63.5838H56.411V64.5918Z" fill="#E6E6E6"/>
<path d="M58.0535 63.5838H59.1895V67.3118H64.4855V63.5838H65.6215V71.9998H64.4855V68.2878H59.1895V71.9998H58.0535V63.5838Z" fill="#E6E6E6"/>
<path d="M72.3864 66.5598C73.4424 66.5705 74.2477 66.8052 74.8024 67.2638C75.3571 67.7225 75.6344 68.3838 75.6344 69.2478C75.6344 70.1438 75.3357 70.8318 74.7384 71.3118C74.141 71.7918 73.2877 72.0265 72.1784 72.0158L68.8504 71.9998V63.5838H69.9864V66.5278L72.3864 66.5598ZM77.0424 63.5838H78.1784V71.9998H77.0424V63.5838ZM72.1144 71.1518C72.893 71.1625 73.4797 71.0078 73.8744 70.6878C74.2797 70.3572 74.4824 69.8772 74.4824 69.2478C74.4824 68.6292 74.285 68.1705 73.8904 67.8718C73.4957 67.5732 72.9037 67.4185 72.1144 67.4078L69.9864 67.3758V71.1198L72.1144 71.1518Z" fill="#E6E6E6"/>
<path d="M88.7729 68.1438H81.7329C81.7969 69.0185 82.1329 69.7278 82.7409 70.2718C83.3489 70.8052 84.1169 71.0718 85.0449 71.0718C85.5676 71.0718 86.0476 70.9812 86.4849 70.7998C86.9222 70.6078 87.3009 70.3305 87.6209 69.9678L88.2609 70.7038C87.8876 71.1518 87.4182 71.4932 86.8529 71.7278C86.2982 71.9625 85.6849 72.0798 85.0129 72.0798C84.1489 72.0798 83.3809 71.8985 82.7089 71.5358C82.0476 71.1625 81.5302 70.6505 81.1569 69.9998C80.7835 69.3492 80.5969 68.6132 80.5969 67.7918C80.5969 66.9705 80.7729 66.2345 81.1249 65.5838C81.4876 64.9332 81.9782 64.4265 82.5969 64.0638C83.2262 63.7012 83.9302 63.5198 84.7089 63.5198C85.4876 63.5198 86.1862 63.7012 86.8049 64.0638C87.4236 64.4265 87.9089 64.9332 88.2609 65.5838C88.6129 66.2238 88.7889 66.9598 88.7889 67.7918L88.7729 68.1438ZM84.7089 64.4958C83.8982 64.4958 83.2155 64.7572 82.6609 65.2798C82.1169 65.7918 81.8075 66.4638 81.7329 67.2958H87.7009C87.6262 66.4638 87.3115 65.7918 86.7569 65.2798C86.2129 64.7572 85.5302 64.4958 84.7089 64.4958Z" fill="#E6E6E6"/>
<path d="M102.371 63.5838V71.9998H101.235V64.5918H97.203L97.091 66.6718C97.0057 68.4212 96.803 69.7652 96.483 70.7038C96.163 71.6425 95.5923 72.1118 94.771 72.1118C94.547 72.1118 94.275 72.0692 93.955 71.9838L94.035 71.0078C94.227 71.0505 94.3603 71.0718 94.435 71.0718C94.8723 71.0718 95.203 70.8692 95.427 70.4638C95.651 70.0585 95.8003 69.5572 95.875 68.9598C95.9497 68.3625 96.0137 67.5732 96.067 66.5918L96.211 63.5838H102.371Z" fill="#E6E6E6"/>
<path d="M105.6 63.5838H106.736V70.2718L112.352 63.5838H113.36V71.9998H112.224V65.3118L106.624 71.9998H105.6V63.5838Z" fill="#E6E6E6"/>
<path d="M122.968 63.5838V71.9998H121.832V68.4958C120.861 68.9225 119.907 69.1358 118.968 69.1358C117.955 69.1358 117.165 68.9065 116.6 68.4478C116.035 67.9785 115.752 67.2798 115.752 66.3518V63.5838H116.888V66.2878C116.888 66.9172 117.091 67.3972 117.496 67.7278C117.901 68.0478 118.461 68.2078 119.176 68.2078C119.965 68.2078 120.851 67.9998 121.832 67.5838V63.5838H122.968Z" fill="#E6E6E6"/>
<path d="M126.194 63.5838H127.33V67.3118H132.626V63.5838H133.762V71.9998H132.626V68.2878H127.33V71.9998H126.194V63.5838Z" fill="#E6E6E6"/>
<path d="M140.463 72.0798C139.652 72.0798 138.922 71.8985 138.271 71.5358C137.62 71.1625 137.108 70.6505 136.735 69.9998C136.362 69.3492 136.175 68.6132 136.175 67.7918C136.175 66.9705 136.362 66.2345 136.735 65.5838C137.108 64.9332 137.62 64.4265 138.271 64.0638C138.922 63.7012 139.652 63.5198 140.463 63.5198C141.274 63.5198 142.004 63.7012 142.655 64.0638C143.306 64.4265 143.812 64.9332 144.175 65.5838C144.548 66.2345 144.735 66.9705 144.735 67.7918C144.735 68.6132 144.548 69.3492 144.175 69.9998C143.812 70.6505 143.306 71.1625 142.655 71.5358C142.004 71.8985 141.274 72.0798 140.463 72.0798ZM140.463 71.0718C141.06 71.0718 141.594 70.9385 142.063 70.6718C142.543 70.3945 142.916 70.0052 143.183 69.5038C143.45 69.0025 143.583 68.4318 143.583 67.7918C143.583 67.1518 143.45 66.5812 143.183 66.0798C142.916 65.5785 142.543 65.1945 142.063 64.9278C141.594 64.6505 141.06 64.5118 140.463 64.5118C139.866 64.5118 139.327 64.6505 138.847 64.9278C138.378 65.1945 138.004 65.5785 137.727 66.0798C137.46 66.5812 137.327 67.1518 137.327 67.7918C137.327 68.4318 137.46 69.0025 137.727 69.5038C138.004 70.0052 138.378 70.3945 138.847 70.6718C139.327 70.9385 139.866 71.0718 140.463 71.0718Z" fill="#E6E6E6"/>
<path d="M150.683 72.0798C149.851 72.0798 149.104 71.8985 148.443 71.5358C147.792 71.1732 147.28 70.6665 146.907 70.0158C146.534 69.3545 146.347 68.6132 146.347 67.7918C146.347 66.9705 146.534 66.2345 146.907 65.5838C147.28 64.9332 147.792 64.4265 148.443 64.0638C149.104 63.7012 149.851 63.5198 150.683 63.5198C151.408 63.5198 152.054 63.6638 152.619 63.9518C153.195 64.2292 153.648 64.6398 153.979 65.1838L153.131 65.7598C152.854 65.3438 152.502 65.0345 152.075 64.8318C151.648 64.6185 151.184 64.5118 150.683 64.5118C150.075 64.5118 149.526 64.6505 149.035 64.9278C148.555 65.1945 148.176 65.5785 147.899 66.0798C147.632 66.5812 147.499 67.1518 147.499 67.7918C147.499 68.4425 147.632 69.0185 147.899 69.5198C148.176 70.0105 148.555 70.3945 149.035 70.6718C149.526 70.9385 150.075 71.0718 150.683 71.0718C151.184 71.0718 151.648 70.9705 152.075 70.7678C152.502 70.5652 152.854 70.2558 153.131 69.8398L153.979 70.4158C153.648 70.9598 153.195 71.3758 152.619 71.6638C152.043 71.9412 151.398 72.0798 150.683 72.0798Z" fill="#E6E6E6"/>
<path d="M161.942 64.5918H158.758V71.9998H157.622V64.5918H154.438V63.5838H161.942V64.5918Z" fill="#E6E6E6"/>
<path d="M163.585 63.5838H164.721V70.2718L170.337 63.5838H171.345V71.9998H170.209V65.3118L164.609 71.9998H163.585V63.5838Z" fill="#E6E6E6"/>
<path d="M174.68 72.0798C174.446 72.0798 174.243 71.9945 174.072 71.8238C173.912 71.6532 173.832 71.4452 173.832 71.1998C173.832 70.9545 173.912 70.7518 174.072 70.5918C174.243 70.4212 174.446 70.3358 174.68 70.3358C174.915 70.3358 175.118 70.4212 175.288 70.5918C175.459 70.7518 175.544 70.9545 175.544 71.1998C175.544 71.4452 175.459 71.6532 175.288 71.8238C175.118 71.9945 174.915 72.0798 174.68 72.0798Z" fill="#E6E6E6"/>
</svg>
