<svg width="49" height="16" viewBox="0 0 49 16" fill="none" xmlns="http://www.w3.org/2000/svg">
<path d="M10.312 0.799805V11.9998H9.144V1.8238H2.056V11.9998H0.888V0.799805H10.312Z" fill="#E6E6E6"/>
<path d="M20.9711 3.58381L16.7631 13.0078C16.4218 13.7971 16.0271 14.3571 15.5791 14.6878C15.1311 15.0185 14.5925 15.1838 13.9631 15.1838C13.5578 15.1838 13.1791 15.1198 12.8271 14.9918C12.4751 14.8638 12.1711 14.6718 11.9151 14.4158L12.4431 13.5678C12.8698 13.9945 13.3818 14.2078 13.9791 14.2078C14.3631 14.2078 14.6885 14.1011 14.9551 13.8878C15.2325 13.6745 15.4885 13.3118 15.7231 12.7998L16.0911 11.9838L12.3311 3.58381H13.5151L16.6831 10.7358L19.8511 3.58381H20.9711Z" fill="#E6E6E6"/>
<path d="M22.741 3.58381H23.877V7.31181H29.173V3.58381H30.309V11.9998H29.173V8.28781H23.877V11.9998H22.741V3.58381Z" fill="#E6E6E6"/>
<path d="M36.5939 8.25581H34.6739V11.9998H33.5379V3.58381H34.6739V7.27981H36.6099L39.5699 3.58381H40.8019L37.4899 7.66381L41.0419 11.9998H39.6979L36.5939 8.25581Z" fill="#E6E6E6"/>
<path d="M48.5829 4.5918H45.3989V11.9998H44.2629V4.5918H41.0789V3.58381H48.5829V4.5918Z" fill="#E6E6E6"/>
</svg>
