<svg width="62" height="18" viewBox="0 0 62 18" fill="none" xmlns="http://www.w3.org/2000/svg">
<path d="M12.24 0V14H10.28V1.74H2.15999V14H0.179993V0H12.24Z" fill="white"/>
<path d="M25.7458 3.4L20.6058 15.06C20.1524 16.14 19.6191 16.9 19.0058 17.34C18.4058 17.78 17.6791 18 16.8258 18C16.3058 18 15.7991 17.9133 15.3058 17.74C14.8258 17.58 14.4258 17.34 14.1058 17.02L14.9258 15.58C15.4724 16.1 16.1058 16.36 16.8258 16.36C17.2924 16.36 17.6791 16.2333 17.9858 15.98C18.3058 15.74 18.5924 15.32 18.8458 14.72L19.1858 13.98L14.5058 3.4H16.5058L20.2058 11.88L23.8658 3.4H25.7458Z" fill="white"/>
<path d="M27.7116 3.4H29.6316V7.9H35.6716V3.4H37.5916V14H35.6716V9.56H29.6316V14H27.7116V3.4Z" fill="white"/>
<path d="M45.4448 9.52H43.2448V14H41.3248V3.4H43.2448V7.88H45.4848L48.9248 3.4H50.9848L46.9648 8.5L51.2648 14H49.0048L45.4448 9.52Z" fill="white"/>
<path d="M61.0022 5.08H57.1222V14H55.2022V5.08H51.3222V3.4H61.0022V5.08Z" fill="white"/>
</svg>
