<svg width="146" height="23" viewBox="0 0 146 23" fill="none" xmlns="http://www.w3.org/2000/svg">
<path d="M0 17.04C0.112 17.04 0.223999 16.928 0.335999 16.704C0.447999 16.48 0.503998 16.112 0.503998 15.6V4.08C0.503998 3.568 0.447999 3.208 0.335999 3C0.223999 2.776 0.112 2.656 0 2.64H7.536C8.96 2.64 10.144 2.776 11.088 3.048C12.048 3.32 12.816 3.696 13.392 4.176C13.984 4.656 14.432 5.208 14.736 5.832C15.04 6.44 15.24 7.088 15.336 7.776C15.448 8.464 15.504 9.16 15.504 9.864C15.504 10.504 15.448 11.168 15.336 11.856C15.24 12.528 15.032 13.176 14.712 13.8C14.408 14.408 13.96 14.96 13.368 15.456C12.792 15.936 12.024 16.32 11.064 16.608C10.12 16.896 8.944 17.04 7.536 17.04H0ZM4.15199 15.096H7.104C9.152 15.096 10.616 14.696 11.496 13.896C12.376 13.096 12.816 11.808 12.816 10.032V9.6C12.816 8.352 12.64 7.368 12.288 6.648C11.936 5.912 11.344 5.392 10.512 5.088C9.67999 4.768 8.544 4.608 7.104 4.608H4.15199C3.68799 4.608 3.408 4.64 3.312 4.704C3.232 4.752 3.192 4.944 3.192 5.28V14.376C3.192 14.728 3.232 14.936 3.312 15C3.408 15.064 3.68799 15.096 4.15199 15.096ZM19.151 3.504C18.687 3.504 18.327 3.376 18.071 3.12C17.815 2.848 17.687 2.536 17.687 2.184C17.687 1.816 17.807 1.504 18.047 1.248C18.303 0.992001 18.671 0.863998 19.151 0.863998C19.631 0.863998 19.991 0.992001 20.231 1.248C20.487 1.504 20.615 1.816 20.615 2.184C20.615 2.536 20.487 2.848 20.231 3.12C19.975 3.376 19.615 3.504 19.151 3.504ZM17.687 17.04C17.799 17.04 17.903 16.928 17.999 16.704C18.111 16.48 18.167 16.112 18.167 15.6V7.248C18.167 6.736 18.111 6.376 17.999 6.168C17.903 5.944 17.799 5.824 17.687 5.808H20.615V15.6C20.615 16.112 20.663 16.48 20.759 16.704C20.871 16.928 20.983 17.04 21.095 17.04H17.687ZM29.004 22.896C27.612 22.896 26.396 22.76 25.356 22.488C24.316 22.216 23.572 21.952 23.124 21.696L23.604 19.536V18.84C23.828 19.176 24.18 19.528 24.66 19.896C25.14 20.264 25.74 20.576 26.46 20.832C27.18 21.088 27.996 21.216 28.908 21.216C29.98 21.216 30.772 21.04 31.284 20.688C31.812 20.336 32.156 19.848 32.316 19.224C32.492 18.6 32.58 17.888 32.58 17.088V16.2L32.628 15.768L32.58 15.72C32.26 16.12 31.764 16.48 31.092 16.8C30.436 17.12 29.628 17.28 28.668 17.28C27.148 17.28 25.964 17.024 25.116 16.512C24.284 16 23.7 15.304 23.364 14.424C23.044 13.544 22.884 12.552 22.884 11.448C22.884 10.328 23.044 9.328 23.364 8.448C23.7 7.568 24.284 6.872 25.116 6.36C25.964 5.832 27.148 5.568 28.668 5.568C29.628 5.568 30.428 5.696 31.068 5.952C31.708 6.208 32.212 6.536 32.58 6.936L32.628 6.912L32.58 6.456V5.808H35.508C35.396 5.824 35.284 5.944 35.172 6.168C35.076 6.392 35.028 6.768 35.028 7.296V16.488C35.028 18.808 34.532 20.456 33.54 21.432C32.564 22.408 31.052 22.896 29.004 22.896ZM28.836 15.576C29.828 15.576 30.596 15.424 31.14 15.12C31.684 14.8 32.06 14.336 32.268 13.728C32.476 13.104 32.58 12.344 32.58 11.448C32.58 10.568 32.468 9.816 32.244 9.192C32.036 8.568 31.66 8.088 31.116 7.752C30.588 7.416 29.828 7.248 28.836 7.248C27.492 7.248 26.564 7.632 26.052 8.4C25.556 9.168 25.308 10.192 25.308 11.472C25.308 12.752 25.556 13.76 26.052 14.496C26.548 15.216 27.476 15.576 28.836 15.576ZM39.284 3.504C38.82 3.504 38.46 3.376 38.204 3.12C37.948 2.848 37.82 2.536 37.82 2.184C37.82 1.816 37.94 1.504 38.18 1.248C38.436 0.992001 38.804 0.863998 39.284 0.863998C39.764 0.863998 40.124 0.992001 40.364 1.248C40.62 1.504 40.748 1.816 40.748 2.184C40.748 2.536 40.62 2.848 40.364 3.12C40.108 3.376 39.748 3.504 39.284 3.504ZM37.82 17.04C37.932 17.04 38.036 16.928 38.132 16.704C38.244 16.48 38.3 16.112 38.3 15.6V7.248C38.3 6.736 38.244 6.376 38.132 6.168C38.036 5.944 37.932 5.824 37.82 5.808H40.748V15.6C40.748 16.112 40.796 16.48 40.892 16.704C41.004 16.928 41.116 17.04 41.228 17.04H37.82ZM47.961 17.28C46.857 17.28 46.057 17.048 45.561 16.584C45.065 16.104 44.817 15.328 44.817 14.256V7.488H42.657V5.808C43.393 5.808 43.969 5.72 44.385 5.544C44.801 5.352 45.097 5.024 45.273 4.56C45.449 4.096 45.537 3.448 45.537 2.616H47.265V5.808H51.849C51.737 5.968 51.625 6.208 51.513 6.528C51.417 6.832 51.369 7.152 51.369 7.488H47.265V13.896C47.265 14.632 47.401 15.096 47.673 15.288C47.945 15.48 48.289 15.576 48.705 15.576C49.297 15.576 49.833 15.4 50.313 15.048C50.793 14.696 51.137 14.352 51.345 14.016V14.76L51.585 16.128C51.345 16.384 50.913 16.64 50.289 16.896C49.665 17.152 48.889 17.28 47.961 17.28ZM57.779 17.28C56.035 17.28 54.811 16.968 54.107 16.344C53.403 15.704 53.051 14.848 53.051 13.776C53.051 12.656 53.475 11.776 54.323 11.136C55.171 10.496 56.467 10.176 58.211 10.176C59.459 10.176 60.459 10.304 61.211 10.56C61.963 10.8 62.467 11.008 62.723 11.184C62.707 9.76 62.435 8.752 61.907 8.16C61.395 7.552 60.483 7.248 59.171 7.248C58.227 7.248 57.379 7.36 56.627 7.584C55.891 7.792 55.299 8.024 54.851 8.28C54.403 8.52 54.123 8.696 54.011 8.808V8.328L53.771 6.528C53.915 6.464 54.227 6.36 54.707 6.216C55.187 6.056 55.819 5.912 56.603 5.784C57.387 5.64 58.307 5.568 59.363 5.568C61.379 5.568 62.851 6 63.779 6.864C64.707 7.712 65.171 9.024 65.171 10.8V15.6C65.171 16.048 65.219 16.376 65.315 16.584C65.427 16.776 65.539 16.928 65.651 17.04H62.723V16.32L62.771 15.864L62.723 15.84C62.195 16.32 61.507 16.68 60.659 16.92C59.811 17.16 58.851 17.28 57.779 17.28ZM58.571 15.576C59.867 15.576 60.883 15.392 61.619 15.024C62.355 14.64 62.723 14.16 62.723 13.584C62.723 13.104 62.403 12.696 61.763 12.36C61.139 12.024 60.163 11.856 58.835 11.856C57.603 11.856 56.731 12.016 56.219 12.336C55.723 12.656 55.475 13.136 55.475 13.776C55.475 14.4 55.715 14.856 56.195 15.144C56.691 15.432 57.483 15.576 58.571 15.576ZM68.063 17.04C68.175 17.04 68.287 16.928 68.399 16.704C68.511 16.48 68.567 16.112 68.567 15.6V4.08C68.567 3.568 68.511 3.208 68.399 3C68.287 2.776 68.175 2.656 68.063 2.64H71.759C71.647 2.64 71.535 2.752 71.423 2.976C71.311 3.2 71.255 3.576 71.255 4.104V14.352C71.255 14.704 71.295 14.92 71.375 15C71.471 15.064 71.759 15.096 72.239 15.096H78.311C79.239 15.096 79.983 14.992 80.543 14.784C81.119 14.56 81.495 14.344 81.671 14.136L81.191 16.536V17.04H68.063ZM89.109 17.04C89.221 17.04 89.333 16.928 89.445 16.704C89.557 16.48 89.613 16.112 89.613 15.6V4.08C89.613 3.568 89.557 3.208 89.445 3C89.333 2.776 89.221 2.656 89.109 2.64H102.621V3.12L103.101 5.424C102.701 5.248 101.997 5.064 100.989 4.872C99.981 4.664 98.765 4.56 97.341 4.56H93.285C92.805 4.56 92.517 4.6 92.421 4.68C92.341 4.744 92.301 4.944 92.301 5.28V8.016C92.301 8.368 92.341 8.576 92.421 8.64C92.517 8.704 92.797 8.736 93.261 8.736H97.221C98.149 8.736 98.893 8.688 99.453 8.592C100.029 8.48 100.405 8.368 100.581 8.256C100.469 8.56 100.357 8.952 100.245 9.432C100.149 9.896 100.101 10.304 100.101 10.656H93.261C92.797 10.656 92.517 10.688 92.421 10.752C92.341 10.8 92.301 11.008 92.301 11.376V15.6C92.301 16.128 92.357 16.504 92.469 16.728C92.581 16.936 92.693 17.04 92.805 17.04H89.109ZM104.783 17.04C104.895 17.04 104.999 16.928 105.095 16.704C105.207 16.48 105.263 16.112 105.263 15.6V1.92C105.263 1.408 105.207 1.048 105.095 0.840004C104.999 0.616004 104.895 0.496003 104.783 0.480003C105.487 0.480003 106.095 0.431999 106.607 0.335999C107.135 0.223999 107.503 0.112 107.711 0V15.6C107.711 16.112 107.759 16.48 107.855 16.704C107.967 16.928 108.079 17.04 108.191 17.04H104.783ZM116.428 17.28C114.828 17.28 113.572 17.024 112.66 16.512C111.764 16 111.132 15.304 110.764 14.424C110.412 13.544 110.236 12.552 110.236 11.448C110.236 10.328 110.42 9.328 110.788 8.448C111.172 7.568 111.812 6.872 112.708 6.36C113.604 5.832 114.844 5.568 116.428 5.568C118.012 5.568 119.252 5.832 120.148 6.36C121.044 6.872 121.676 7.568 122.044 8.448C122.428 9.328 122.62 10.328 122.62 11.448C122.62 12.552 122.436 13.544 122.068 14.424C121.716 15.304 121.092 16 120.196 16.512C119.3 17.024 118.044 17.28 116.428 17.28ZM116.428 15.576C117.42 15.576 118.188 15.416 118.732 15.096C119.276 14.776 119.652 14.312 119.86 13.704C120.068 13.08 120.172 12.328 120.172 11.448C120.172 10.568 120.06 9.816 119.836 9.192C119.628 8.568 119.252 8.088 118.708 7.752C118.18 7.416 117.42 7.248 116.428 7.248C115.452 7.248 114.692 7.424 114.148 7.776C113.604 8.112 113.22 8.6 112.996 9.24C112.788 9.864 112.684 10.608 112.684 11.472C112.684 12.32 112.788 13.056 112.996 13.68C113.204 14.288 113.58 14.76 114.124 15.096C114.668 15.416 115.436 15.576 116.428 15.576ZM127.652 17.04C127.764 17.04 127.836 16.936 127.868 16.728C127.916 16.504 127.844 16.128 127.652 15.6C127.572 15.392 127.42 15.024 127.196 14.496C126.972 13.968 126.708 13.36 126.404 12.672C126.116 11.968 125.812 11.264 125.492 10.56C125.172 9.84 124.876 9.192 124.604 8.616C124.332 8.024 124.116 7.584 123.956 7.296C123.684 6.784 123.436 6.416 123.212 6.192C122.988 5.952 122.828 5.824 122.732 5.808H126.644C126.5 5.808 126.404 5.92 126.356 6.144C126.308 6.368 126.404 6.752 126.644 7.296C126.772 7.568 126.948 7.984 127.172 8.544C127.396 9.088 127.644 9.72 127.916 10.44C128.204 11.144 128.492 11.864 128.78 12.6C129.068 13.336 129.332 14.024 129.572 14.664H129.596C129.836 14.008 130.092 13.312 130.364 12.576C130.636 11.824 130.9 11.088 131.156 10.368C131.428 9.648 131.668 9.016 131.876 8.472C132.084 7.912 132.244 7.504 132.356 7.248C132.58 6.736 132.668 6.368 132.62 6.144C132.572 5.92 132.484 5.808 132.356 5.808H136.196C136.052 5.808 135.956 5.92 135.908 6.144C135.86 6.368 135.956 6.752 136.196 7.296C136.324 7.568 136.492 7.984 136.7 8.544C136.924 9.088 137.164 9.72 137.42 10.44C137.692 11.144 137.964 11.864 138.236 12.6C138.508 13.336 138.756 14.024 138.98 14.664H139.004C139.276 14.008 139.564 13.312 139.868 12.576C140.172 11.824 140.476 11.088 140.78 10.368C141.084 9.648 141.348 9.016 141.572 8.472C141.812 7.912 141.988 7.504 142.1 7.248C142.324 6.736 142.412 6.368 142.364 6.144C142.316 5.92 142.228 5.808 142.1 5.808H145.868C145.772 5.808 145.62 5.92 145.412 6.144C145.22 6.352 144.996 6.712 144.74 7.224C144.596 7.496 144.388 7.912 144.116 8.472C143.844 9.032 143.54 9.664 143.204 10.368C142.868 11.056 142.54 11.744 142.22 12.432C141.9 13.12 141.62 13.752 141.38 14.328C141.14 14.888 140.98 15.312 140.9 15.6C140.756 16.128 140.7 16.504 140.732 16.728C140.764 16.936 140.82 17.04 140.9 17.04H137.06C137.172 17.04 137.244 16.936 137.276 16.728C137.324 16.504 137.252 16.128 137.06 15.6C137.012 15.456 136.892 15.128 136.7 14.616C136.508 14.104 136.276 13.488 136.004 12.768C135.732 12.032 135.452 11.272 135.164 10.488C134.876 9.704 134.596 8.96 134.324 8.256H134.252C133.996 8.928 133.716 9.648 133.412 10.416C133.108 11.168 132.82 11.904 132.548 12.624C132.276 13.328 132.044 13.952 131.852 14.496C131.66 15.024 131.54 15.392 131.492 15.6C131.348 16.128 131.292 16.504 131.324 16.728C131.356 16.936 131.412 17.04 131.492 17.04H127.652Z" fill="black"/>
</svg>
