<svg width="55" height="49" viewBox="0 0 55 49" fill="none" xmlns="http://www.w3.org/2000/svg">
<g clip-path="url(#clip0_73_82)">
<path fill-rule="evenodd" clip-rule="evenodd" d="M27.5001 1.77011L51.4803 47.5H3.51968L27.5001 1.77011ZM8.48032 44.5H46.5197L27.5001 8.22991L8.48032 44.5Z" fill="black"/>
<path fill-rule="evenodd" clip-rule="evenodd" d="M27.5001 -1.02164L55.854 49.5H-0.853973L27.5001 -1.02164ZM0.853977 48.5H54.146L27.5001 1.02162L0.853977 48.5Z" fill="black"/>
<path fill-rule="evenodd" clip-rule="evenodd" d="M27.6351 26.5047C24.0337 26.4289 20.8679 27.2686 18.6704 28.5623L17.9094 27.2696L18.6704 28.5623C16.437 29.8771 15.5282 31.4269 15.5007 32.7469L15.5007 32.747C15.4731 34.0671 16.3167 35.654 18.4936 37.0621C20.6353 38.4472 23.7634 39.4193 27.3649 39.4952C30.9663 39.5712 34.1321 38.7313 36.3296 37.4378C38.563 36.1229 39.4718 34.5731 39.4993 33.2531V33.253C39.5269 31.9329 38.6833 30.3459 36.5064 28.938L36.5064 28.938C34.3647 27.5528 31.2366 26.5806 27.6351 26.5047ZM17.1485 25.977C19.8985 24.358 23.6313 23.4197 27.6983 23.5054C31.7652 23.5911 35.4556 24.6857 38.1356 26.4189C40.8088 28.1478 42.5559 30.5743 42.4987 33.3156L40.999 33.2843L42.4987 33.3156C42.4987 33.3156 42.4987 33.3156 42.4987 33.3156C42.4415 36.057 40.5947 38.4081 37.8516 40.0231L37.8515 40.0231C35.1015 41.6419 31.3687 42.5803 27.3017 42.4946C23.2348 42.4088 19.5444 41.3145 16.8644 39.5812L16.8643 39.5811C14.1912 37.8521 12.4442 35.4258 12.5013 32.6844M17.1485 25.977L17.1484 25.977ZM17.1484 25.977C14.4053 27.592 12.5585 29.9429 12.5013 32.6844Z" fill="black"/>
</g>
<defs>
<clipPath id="clip0_73_82">
<rect width="55" height="49" fill="white"/>
</clipPath>
</defs>
</svg>
